<mxfile host="65bd71144e">
    <diagram id="8CJJwfLi34m45Q1qpzIN" name="Página-1">
        <mxGraphModel dx="1531" dy="686" grid="1" gridSize="10" guides="1" tooltips="1" connect="1" arrows="1" fold="1" page="1" pageScale="1" pageWidth="827" pageHeight="1169" math="0" shadow="0">
            <root>
                <mxCell id="0"/>
                <mxCell id="1" parent="0"/>
                <mxCell id="4" value="usuarios" style="swimlane;fontStyle=0;childLayout=stackLayout;horizontal=1;startSize=26;horizontalStack=0;resizeParent=1;resizeParentMax=0;resizeLast=0;collapsible=1;marginBottom=0;align=center;fontSize=14;fillColor=#76608a;fontColor=#ffffff;strokeColor=#432D57;" parent="1" vertex="1">
                    <mxGeometry x="10" y="440" width="250" height="336" as="geometry"/>
                </mxCell>
                <mxCell id="5" value="id INT(50) AUTOINCREMENT NOT NULL" style="text;strokeColor=#B09500;fillColor=#e3c800;spacingLeft=4;spacingRight=4;overflow=hidden;rotatable=0;points=[[0,0.5],[1,0.5]];portConstraint=eastwest;fontSize=12;fontColor=#000000;" parent="4" vertex="1">
                    <mxGeometry y="26" width="250" height="30" as="geometry"/>
                </mxCell>
                <mxCell id="13" value="apellido VARCHAR(100) NOT NULL" style="text;strokeColor=#B09500;fillColor=#e3c800;spacingLeft=4;spacingRight=4;overflow=hidden;rotatable=0;points=[[0,0.5],[1,0.5]];portConstraint=eastwest;fontSize=12;fontColor=#000000;" parent="4" vertex="1">
                    <mxGeometry y="56" width="250" height="30" as="geometry"/>
                </mxCell>
                <mxCell id="14" value="nombre VARCHAR(100) NOT NULL&#10;    " style="text;strokeColor=#B09500;fillColor=#e3c800;spacingLeft=4;spacingRight=4;overflow=hidden;rotatable=0;points=[[0,0.5],[1,0.5]];portConstraint=eastwest;fontSize=12;fontColor=#000000;" parent="4" vertex="1">
                    <mxGeometry y="86" width="250" height="30" as="geometry"/>
                </mxCell>
                <mxCell id="6" value="direccion VARCHAR(30)" style="text;strokeColor=#B09500;fillColor=#e3c800;spacingLeft=4;spacingRight=4;overflow=hidden;rotatable=0;points=[[0,0.5],[1,0.5]];portConstraint=eastwest;fontSize=12;fontColor=#000000;" parent="4" vertex="1">
                    <mxGeometry y="116" width="250" height="30" as="geometry"/>
                </mxCell>
                <mxCell id="7" value="telefono VARCHAR(30)" style="text;strokeColor=#B09500;fillColor=#e3c800;spacingLeft=4;spacingRight=4;overflow=hidden;rotatable=0;points=[[0,0.5],[1,0.5]];portConstraint=eastwest;fontSize=12;fontColor=#000000;" parent="4" vertex="1">
                    <mxGeometry y="146" width="250" height="30" as="geometry"/>
                </mxCell>
                <mxCell id="8" value="email VARCHAR(30) NOT NULL" style="text;strokeColor=#B09500;fillColor=#e3c800;spacingLeft=4;spacingRight=4;overflow=hidden;rotatable=0;points=[[0,0.5],[1,0.5]];portConstraint=eastwest;fontSize=12;fontColor=#000000;" parent="4" vertex="1">
                    <mxGeometry y="176" width="250" height="30" as="geometry"/>
                </mxCell>
                <mxCell id="69" value="clave VARCHAR(100) NOT NULL" style="text;strokeColor=#B09500;fillColor=#e3c800;spacingLeft=4;spacingRight=4;overflow=hidden;rotatable=0;points=[[0,0.5],[1,0.5]];portConstraint=eastwest;fontSize=12;fontColor=#000000;" parent="4" vertex="1">
                    <mxGeometry y="206" width="250" height="30" as="geometry"/>
                </mxCell>
                <mxCell id="11" value="tipo_documento ENUM(&quot;ci&quot;,&#10;&quot;doc_extranjero&quot;)" style="text;strokeColor=#B09500;fillColor=#e3c800;spacingLeft=4;spacingRight=4;overflow=hidden;rotatable=0;points=[[0,0.5],[1,0.5]];portConstraint=eastwest;fontSize=12;fontColor=#000000;" parent="4" vertex="1">
                    <mxGeometry y="236" width="250" height="40" as="geometry"/>
                </mxCell>
                <mxCell id="33" value="num_documento VARCHAR(15)  NOT NULL" style="text;strokeColor=#B09500;fillColor=#e3c800;spacingLeft=4;spacingRight=4;overflow=hidden;rotatable=0;points=[[0,0.5],[1,0.5]];portConstraint=eastwest;fontSize=12;fontColor=#000000;" parent="4" vertex="1">
                    <mxGeometry y="276" width="250" height="30" as="geometry"/>
                </mxCell>
                <mxCell id="12" value="estado TINYINT(1)" style="text;strokeColor=#B09500;fillColor=#e3c800;spacingLeft=4;spacingRight=4;overflow=hidden;rotatable=0;points=[[0,0.5],[1,0.5]];portConstraint=eastwest;fontSize=12;fontColor=#000000;" parent="4" vertex="1">
                    <mxGeometry y="306" width="250" height="30" as="geometry"/>
                </mxCell>
                <mxCell id="15" value="vehiculos" style="swimlane;fontStyle=0;childLayout=stackLayout;horizontal=1;startSize=26;horizontalStack=0;resizeParent=1;resizeParentMax=0;resizeLast=0;collapsible=1;marginBottom=0;align=center;fontSize=14;fillColor=#647687;fontColor=#ffffff;strokeColor=#314354;" parent="1" vertex="1">
                    <mxGeometry x="580" y="410" width="240" height="350" as="geometry"/>
                </mxCell>
                <mxCell id="16" value="id INT(50) AUTOINCREMENT NOT NULL" style="text;strokeColor=#B09500;fillColor=#e3c800;spacingLeft=4;spacingRight=4;overflow=hidden;rotatable=0;points=[[0,0.5],[1,0.5]];portConstraint=eastwest;fontSize=12;fontColor=#000000;" parent="15" vertex="1">
                    <mxGeometry y="26" width="240" height="30" as="geometry"/>
                </mxCell>
                <mxCell id="25" value="modelo VARCHAR(20) NOT NULL" style="text;strokeColor=#B09500;fillColor=#e3c800;spacingLeft=4;spacingRight=4;overflow=hidden;rotatable=0;points=[[0,0.5],[1,0.5]];portConstraint=eastwest;fontSize=12;fontColor=#000000;" parent="15" vertex="1">
                    <mxGeometry y="56" width="240" height="30" as="geometry"/>
                </mxCell>
                <mxCell id="26" value="color VARCHAR(20)" style="text;strokeColor=#B09500;fillColor=#e3c800;spacingLeft=4;spacingRight=4;overflow=hidden;rotatable=0;points=[[0,0.5],[1,0.5]];portConstraint=eastwest;fontSize=12;fontColor=#000000;" parent="15" vertex="1">
                    <mxGeometry y="86" width="240" height="30" as="geometry"/>
                </mxCell>
                <mxCell id="27" value="tipo_vehiculo ENUM(&quot;citycar&quot;,&quot;sedan&quot;,&#10;&quot;deportivo&quot;,&quot;utilitarios&quot;,&quot;camioneta&quot;,&#10;&quot;omnibus&quot;)" style="text;strokeColor=#B09500;fillColor=#e3c800;spacingLeft=4;spacingRight=4;overflow=hidden;rotatable=0;points=[[0,0.5],[1,0.5]];portConstraint=eastwest;fontSize=12;fontColor=#000000;" parent="15" vertex="1">
                    <mxGeometry y="116" width="240" height="54" as="geometry"/>
                </mxCell>
                <mxCell id="28" value="marca VARCHAR(15) NOT NULL" style="text;strokeColor=#B09500;fillColor=#e3c800;spacingLeft=4;spacingRight=4;overflow=hidden;rotatable=0;points=[[0,0.5],[1,0.5]];portConstraint=eastwest;fontSize=12;fontColor=#000000;" parent="15" vertex="1">
                    <mxGeometry y="170" width="240" height="30" as="geometry"/>
                </mxCell>
                <mxCell id="29" value="precio INT(5)" style="text;strokeColor=#B09500;fillColor=#e3c800;spacingLeft=4;spacingRight=4;overflow=hidden;rotatable=0;points=[[0,0.5],[1,0.5]];portConstraint=eastwest;fontSize=12;fontColor=#000000;" parent="15" vertex="1">
                    <mxGeometry y="200" width="240" height="30" as="geometry"/>
                </mxCell>
                <mxCell id="70" value="cant_pasajeros TINYINT(50)" style="text;strokeColor=#B09500;fillColor=#e3c800;spacingLeft=4;spacingRight=4;overflow=hidden;rotatable=0;points=[[0,0.5],[1,0.5]];portConstraint=eastwest;fontSize=12;fontColor=#000000;" vertex="1" parent="15">
                    <mxGeometry y="230" width="240" height="30" as="geometry"/>
                </mxCell>
                <mxCell id="30" value="matricula VARCHAR(15)" style="text;strokeColor=#B09500;fillColor=#e3c800;spacingLeft=4;spacingRight=4;overflow=hidden;rotatable=0;points=[[0,0.5],[1,0.5]];portConstraint=eastwest;fontSize=12;fontColor=#000000;" parent="15" vertex="1">
                    <mxGeometry y="260" width="240" height="30" as="geometry"/>
                </mxCell>
                <mxCell id="71" value="imagen VARCHAR (100)" style="text;strokeColor=#B09500;fillColor=#e3c800;spacingLeft=4;spacingRight=4;overflow=hidden;rotatable=0;points=[[0,0.5],[1,0.5]];portConstraint=eastwest;fontSize=12;fontColor=#000000;" vertex="1" parent="15">
                    <mxGeometry y="290" width="240" height="30" as="geometry"/>
                </mxCell>
                <mxCell id="43" value="estado TINYINT(1)" style="text;strokeColor=#B09500;fillColor=#e3c800;spacingLeft=4;spacingRight=4;overflow=hidden;rotatable=0;points=[[0,0.5],[1,0.5]];portConstraint=eastwest;fontSize=12;fontColor=#000000;" parent="15" vertex="1">
                    <mxGeometry y="320" width="240" height="30" as="geometry"/>
                </mxCell>
                <mxCell id="31" value="" style="edgeStyle=none;html=1;exitX=1;exitY=0.133;exitDx=0;exitDy=0;exitPerimeter=0;entryX=0;entryY=0.5;entryDx=0;entryDy=0;" parent="1" source="5" target="55" edge="1">
                    <mxGeometry relative="1" as="geometry">
                        <mxPoint x="310" y="370" as="sourcePoint"/>
                        <mxPoint x="230" y="230" as="targetPoint"/>
                    </mxGeometry>
                </mxCell>
                <mxCell id="34" value="alquileres" style="swimlane;fontStyle=0;childLayout=stackLayout;horizontal=1;startSize=26;horizontalStack=0;resizeParent=1;resizeParentMax=0;resizeLast=0;collapsible=1;marginBottom=0;align=center;fontSize=14;fillColor=#647687;fontColor=#ffffff;strokeColor=#314354;" parent="1" vertex="1">
                    <mxGeometry x="290" y="160" width="220" height="206" as="geometry"/>
                </mxCell>
                <mxCell id="66" value="id INT(4) AUTOINCREMENT NOT NULL" style="text;strokeColor=#B09500;fillColor=#e3c800;spacingLeft=4;spacingRight=4;overflow=hidden;rotatable=0;points=[[0,0.5],[1,0.5]];portConstraint=eastwest;fontSize=12;fontColor=#000000;" parent="34" vertex="1">
                    <mxGeometry y="26" width="220" height="30" as="geometry"/>
                </mxCell>
                <mxCell id="68" value="fecha_desde DATE NOT NULL" style="text;strokeColor=#B09500;fillColor=#e3c800;spacingLeft=4;spacingRight=4;overflow=hidden;rotatable=0;points=[[0,0.5],[1,0.5]];portConstraint=eastwest;fontSize=12;fontColor=#000000;" parent="34" vertex="1">
                    <mxGeometry y="56" width="220" height="30" as="geometry"/>
                </mxCell>
                <mxCell id="35" value="fecha_hasta DATE NOT NULL" style="text;strokeColor=#B09500;fillColor=#e3c800;spacingLeft=4;spacingRight=4;overflow=hidden;rotatable=0;points=[[0,0.5],[1,0.5]];portConstraint=eastwest;fontSize=12;fontColor=#000000;" parent="34" vertex="1">
                    <mxGeometry y="86" width="220" height="30" as="geometry"/>
                </mxCell>
                <mxCell id="55" value="id_usuario INT(50)" style="text;strokeColor=#B09500;fillColor=#e3c800;spacingLeft=4;spacingRight=4;overflow=hidden;rotatable=0;points=[[0,0.5],[1,0.5]];portConstraint=eastwest;fontSize=12;fontColor=#000000;" parent="34" vertex="1">
                    <mxGeometry y="116" width="220" height="30" as="geometry"/>
                </mxCell>
                <mxCell id="56" value="id_vehiculo INT(50)" style="text;strokeColor=#B09500;fillColor=#e3c800;spacingLeft=4;spacingRight=4;overflow=hidden;rotatable=0;points=[[0,0.5],[1,0.5]];portConstraint=eastwest;fontSize=12;fontColor=#000000;" parent="34" vertex="1">
                    <mxGeometry y="146" width="220" height="30" as="geometry"/>
                </mxCell>
                <mxCell id="58" value="estado TINYINT(1)" style="text;strokeColor=#B09500;fillColor=#e3c800;spacingLeft=4;spacingRight=4;overflow=hidden;rotatable=0;points=[[0,0.5],[1,0.5]];portConstraint=eastwest;fontSize=12;fontColor=#000000;" parent="34" vertex="1">
                    <mxGeometry y="176" width="220" height="30" as="geometry"/>
                </mxCell>
                <mxCell id="45" value="administradores" style="swimlane;fontStyle=0;childLayout=stackLayout;horizontal=1;startSize=26;horizontalStack=0;resizeParent=1;resizeParentMax=0;resizeLast=0;collapsible=1;marginBottom=0;align=center;fontSize=14;fillColor=#647687;fontColor=#ffffff;strokeColor=#314354;" parent="1" vertex="1">
                    <mxGeometry x="304" y="720" width="250" height="210" as="geometry"/>
                </mxCell>
                <mxCell id="46" value="id INT(4) AUTOINCREMENT" style="text;strokeColor=#B09500;fillColor=#e3c800;spacingLeft=4;spacingRight=4;overflow=hidden;rotatable=0;points=[[0,0.5],[1,0.5]];portConstraint=eastwest;fontSize=12;fontColor=#000000;" parent="45" vertex="1">
                    <mxGeometry y="26" width="250" height="30" as="geometry"/>
                </mxCell>
                <mxCell id="47" value="nombre_usuario VARCHAR(20) NOT NULL" style="text;strokeColor=#B09500;fillColor=#e3c800;spacingLeft=4;spacingRight=4;overflow=hidden;rotatable=0;points=[[0,0.5],[1,0.5]];portConstraint=eastwest;fontSize=12;fontColor=#000000;" parent="45" vertex="1">
                    <mxGeometry y="56" width="250" height="30" as="geometry"/>
                </mxCell>
                <mxCell id="51" value="tipo_usuario-ENUM(administrador&quot;,&#10;&quot;encargado&quot;, &quot;vendedor&quot;)" style="text;strokeColor=#B09500;fillColor=#e3c800;spacingLeft=4;spacingRight=4;overflow=hidden;rotatable=0;points=[[0,0.5],[1,0.5]];portConstraint=eastwest;fontSize=12;fontColor=#000000;" parent="45" vertex="1">
                    <mxGeometry y="86" width="250" height="34" as="geometry"/>
                </mxCell>
                <mxCell id="49" value="mail VARCHAR (35)  NOT NUL" style="text;strokeColor=#B09500;fillColor=#e3c800;spacingLeft=4;spacingRight=4;overflow=hidden;rotatable=0;points=[[0,0.5],[1,0.5]];portConstraint=eastwest;fontSize=12;fontColor=#000000;" parent="45" vertex="1">
                    <mxGeometry y="120" width="250" height="30" as="geometry"/>
                </mxCell>
                <mxCell id="72" value="clave VARCHAR (100)" style="text;strokeColor=#B09500;fillColor=#e3c800;spacingLeft=4;spacingRight=4;overflow=hidden;rotatable=0;points=[[0,0.5],[1,0.5]];portConstraint=eastwest;fontSize=12;fontColor=#000000;" vertex="1" parent="45">
                    <mxGeometry y="150" width="250" height="30" as="geometry"/>
                </mxCell>
                <mxCell id="50" value="estado TINYINT (1)" style="text;strokeColor=#B09500;fillColor=#e3c800;spacingLeft=4;spacingRight=4;overflow=hidden;rotatable=0;points=[[0,0.5],[1,0.5]];portConstraint=eastwest;fontSize=12;fontColor=#000000;" parent="45" vertex="1">
                    <mxGeometry y="180" width="250" height="30" as="geometry"/>
                </mxCell>
                <mxCell id="57" style="edgeStyle=none;html=1;exitX=0;exitY=0.5;exitDx=0;exitDy=0;entryX=1;entryY=0.5;entryDx=0;entryDy=0;" parent="1" source="16" target="56" edge="1">
                    <mxGeometry relative="1" as="geometry"/>
                </mxCell>
            </root>
        </mxGraphModel>
    </diagram>
</mxfile>